<?xml version="1.0" encoding="UTF-8" standalone="no"?>
<svg
   xmlns:dc="http://purl.org/dc/elements/1.1/"
   xmlns:cc="http://creativecommons.org/ns#"
   xmlns:rdf="http://www.w3.org/1999/02/22-rdf-syntax-ns#"
   xmlns:svg="http://www.w3.org/2000/svg"
   xmlns="http://www.w3.org/2000/svg"
   xmlns:sodipodi="http://sodipodi.sourceforge.net/DTD/sodipodi-0.dtd"
   xmlns:inkscape="http://www.inkscape.org/namespaces/inkscape"
   width="400"
   height="400"
   viewBox="0 0 105.83333 105.83334"
   version="1.1"
   id="svg8"
   inkscape:version="1.0.1 (3bc2e813f5, 2020-09-07)"
   sodipodi:docname="neocanine_tail_east.svg"
   inkscape:export-filename="C:\Users\matly\neocanine_east.png"
   inkscape:export-xdpi="30.719999"
   inkscape:export-ydpi="30.719999">
  <defs
     id="defs2">
    <marker
       style="overflow:visible"
       id="EmptyDiamondSend"
       refX="0"
       refY="0"
       orient="auto"
       inkscape:stockid="EmptyDiamondSend"
       inkscape:isstock="true">
      <path
         transform="matrix(0.2,0,0,0.2,-1.2,0)"
         style="fill:#f9f9f9;fill-opacity:1;fill-rule:evenodd;stroke:#000000;stroke-width:1pt;stroke-opacity:1"
         d="M 0,-7.0710768 -7.0710894,0 0,7.0710589 7.0710462,0 Z"
         id="path969" />
    </marker>
    <marker
       style="overflow:visible"
       id="DiamondSstart"
       refX="0"
       refY="0"
       orient="auto"
       inkscape:stockid="DiamondSstart"
       inkscape:isstock="true">
      <path
         transform="matrix(0.2,0,0,0.2,1.2,0)"
         style="fill:#f9f9f9;fill-opacity:1;fill-rule:evenodd;stroke:#000000;stroke-width:1pt;stroke-opacity:1"
         d="M 0,-7.0710768 -7.0710894,0 0,7.0710589 7.0710462,0 Z"
         id="path933" />
    </marker>
    <marker
       style="overflow:visible"
       id="Arrow2Sstart"
       refX="0"
       refY="0"
       orient="auto"
       inkscape:stockid="Arrow2Sstart"
       inkscape:isstock="true">
      <path
         transform="matrix(0.3,0,0,0.3,-0.69,0)"
         d="M 8.7185878,4.0337352 -2.2072895,0.01601326 8.7185884,-4.0017078 c -1.7454984,2.3720609 -1.7354408,5.6174519 -6e-7,8.035443 z"
         style="fill:#f9f9f9;fill-opacity:1;fill-rule:evenodd;stroke:#000000;stroke-width:0.625;stroke-linejoin:round;stroke-opacity:1"
         id="path869" />
    </marker>
    <marker
       style="overflow:visible"
       id="Arrow1Send"
       refX="0"
       refY="0"
       orient="auto"
       inkscape:stockid="Arrow1Send"
       inkscape:isstock="true">
      <path
         transform="matrix(-0.2,0,0,-0.2,-1.2,0)"
         style="fill:#f9f9f9;fill-opacity:1;fill-rule:evenodd;stroke:#000000;stroke-width:1pt;stroke-opacity:1"
         d="M 0,0 5,-5 -12.5,0 5,5 Z"
         id="path854" />
    </marker>
    <marker
       style="overflow:visible"
       id="DiamondL"
       refX="0"
       refY="0"
       orient="auto"
       inkscape:stockid="DiamondL"
       inkscape:isstock="true">
      <path
         transform="scale(0.8)"
         style="fill:#f9f9f9;fill-opacity:1;fill-rule:evenodd;stroke:#000000;stroke-width:1pt;stroke-opacity:1"
         d="M 0,-7.0710768 -7.0710894,0 0,7.0710589 7.0710462,0 Z"
         id="path918" />
    </marker>
    <marker
       style="overflow:visible"
       id="DiamondLstart"
       refX="0"
       refY="0"
       orient="auto"
       inkscape:stockid="DiamondLstart"
       inkscape:isstock="true">
      <path
         transform="matrix(0.8,0,0,0.8,5.6,0)"
         style="fill:#f9f9f9;fill-opacity:1;fill-rule:evenodd;stroke:#000000;stroke-width:1pt;stroke-opacity:1"
         d="M 0,-7.0710768 -7.0710894,0 0,7.0710589 7.0710462,0 Z"
         id="path927" />
    </marker>
  </defs>
  <sodipodi:namedview
     id="base"
     pagecolor="#ffffff"
     bordercolor="#666666"
     borderopacity="1.0"
     inkscape:pageopacity="0.0"
     inkscape:pageshadow="2"
     inkscape:zoom="1.979899"
     inkscape:cx="220.1027"
     inkscape:cy="200.12035"
     inkscape:document-units="mm"
     inkscape:current-layer="layer1"
     inkscape:document-rotation="0"
     showgrid="false"
     units="px"
     inkscape:window-width="3440"
     inkscape:window-height="1377"
     inkscape:window-x="-8"
     inkscape:window-y="-8"
     inkscape:window-maximized="1" />
  <metadata
     id="metadata5">
    <rdf:RDF>
      <cc:Work
         rdf:about="">
        <dc:format>image/svg+xml</dc:format>
        <dc:type
           rdf:resource="http://purl.org/dc/dcmitype/StillImage" />
        <dc:title></dc:title>
      </cc:Work>
    </rdf:RDF>
  </metadata>
  <g
     inkscape:label="Layer 1"
     inkscape:groupmode="layer"
     id="layer1">
    <path
       style="fill:#f9f9f9;stroke:#000000;stroke-width:2.64583;stroke-linecap:butt;stroke-linejoin:miter;stroke-miterlimit:4;stroke-dasharray:none;stroke-opacity:1"
       d="m 88.162946,43.656249 c -5.428082,-0.808795 -10.196541,-5.071036 -13.985118,-6.614583 0.566962,1.984375 0.472468,0.992187 0.566962,1.984375 -8.550022,-2.941354 -17.908542,-5.90299 -25.70238,-6.283855 0,0 1.136645,1.622024 1.984376,2.220612 -22.907906,2.48683 -22.387875,20.416239 -27.686756,32.97842 -1.249667,1.224353 -2.709271,1.172109 -5.102679,1.228424 0.99075,1.2871 0.630031,0.883034 1.039435,1.984375 -1.421771,0.253083 -0.929664,0.586173 -2.834822,1.13393 2.211408,0.972959 2.286188,1.589352 3.685268,2.078868 -0.704388,0.725499 -1.175037,0.994644 -1.606399,1.795386 7.829868,6.02845 21.053187,5.475065 29.104167,3.708892 0.860471,0.0804 1.108088,0.808257 -0.0945,2.244233 11.500076,-3.683823 9.142008,-13.989698 13.418156,-19.276785 3.399622,-4.029778 7.969932,-7.10673 12.711372,-9.412219 3.039594,-1.477979 9.778211,-2.68302 9.778211,-2.68302 z"
       id="path8961"
       sodipodi:nodetypes="ccccccccccccccscc" />
  </g>
</svg>
