<?xml version="1.0" encoding="UTF-8" standalone="no"?>
<svg
   xmlns:dc="http://purl.org/dc/elements/1.1/"
   xmlns:cc="http://creativecommons.org/ns#"
   xmlns:rdf="http://www.w3.org/1999/02/22-rdf-syntax-ns#"
   xmlns:svg="http://www.w3.org/2000/svg"
   xmlns="http://www.w3.org/2000/svg"
   xmlns:sodipodi="http://sodipodi.sourceforge.net/DTD/sodipodi-0.dtd"
   xmlns:inkscape="http://www.inkscape.org/namespaces/inkscape"
   width="400"
   height="400"
   viewBox="0 0 105.83333 105.83334"
   version="1.1"
   id="svg2791"
   sodipodi:docname="neocanine_head_south.svg"
   inkscape:export-filename="C:\Users\matly\neocanine_head_south.png"
   inkscape:export-xdpi="30.719999"
   inkscape:export-ydpi="30.719999"
   inkscape:version="1.0.1 (3bc2e813f5, 2020-09-07)">
  <defs
     id="defs2785" />
  <sodipodi:namedview
     id="base"
     pagecolor="#222222"
     bordercolor="#666666"
     borderopacity="1.0"
     inkscape:pageopacity="0"
     inkscape:pageshadow="2"
     inkscape:zoom="1.979899"
     inkscape:cx="280.18354"
     inkscape:cy="221.99388"
     inkscape:document-units="mm"
     inkscape:current-layer="layer1"
     inkscape:document-rotation="0"
     showgrid="true"
     units="px"
     inkscape:snap-global="true"
     inkscape:snap-grids="false"
     inkscape:window-width="3440"
     inkscape:window-height="1377"
     inkscape:window-x="-8"
     inkscape:window-y="-8"
     inkscape:window-maximized="1">
    <inkscape:grid
       type="xygrid"
       id="grid3391"
       spacingx="13.229167"
       spacingy="13.229167" />
  </sodipodi:namedview>
  <metadata
     id="metadata2788">
    <rdf:RDF>
      <cc:Work
         rdf:about="">
        <dc:format>image/svg+xml</dc:format>
        <dc:type
           rdf:resource="http://purl.org/dc/dcmitype/StillImage" />
        <dc:title></dc:title>
      </cc:Work>
    </rdf:RDF>
  </metadata>
  <g
     inkscape:label="Layer 1"
     inkscape:groupmode="layer"
     id="layer1">
    <path
       id="path3354"
       style="fill:#f9f9f9;stroke:#000000;stroke-width:3.22297;stroke-linecap:butt;stroke-linejoin:miter;stroke-miterlimit:4;stroke-dasharray:none;stroke-opacity:1"
       d="m 58.253714,81.36423 c 1.27917,-1.920169 1.523777,-2.729192 2.090731,-4.166776 5.604278,-3.286118 10.664366,-4.644828 18.448961,-4.883547 -1.658874,-2.345348 -1.541799,-1.868484 -1.302195,-3.066013 1.600629,0.102421 1.007068,-0.07282 2.170466,0.02727 0.487314,-8.039989 -3.219339,-10.308932 -9.22448,-16.604149 3.610002,-6.328463 4.320688,-11.47286 4.557895,-15.844148 0.0486,-1.517683 0.207848,-2.823384 -0.976542,-4.449624 -5.673287,2.47151 -7.211941,4.115902 -14.10803,9.875789 -2.383647,-1.748693 -4.489581,-2.011427 -7.216841,-2.00764 -2.727261,-0.0038 -4.833196,0.258947 -7.216842,2.00764 -6.896089,-5.759887 -8.434744,-7.404279 -14.108029,-9.875789 -1.184392,1.62624 -1.025145,2.931941 -0.976541,4.449624 0.237206,4.371288 0.947891,9.515685 4.557894,15.844148 -6.005142,6.295219 -9.711796,8.564157 -9.224481,16.604149 1.163399,-0.100104 0.569837,0.07514 2.170466,-0.02727 0.239603,1.197531 0.35668,0.720665 -1.302195,3.066013 7.784595,0.238719 12.844684,1.597429 18.448961,4.883547 0.566955,1.437584 0.811561,2.246604 2.090731,4.166776 2.420013,0.552613 3.900941,0.539063 5.560036,0.539063 1.659095,0 3.140019,0.01355 5.560035,-0.539063 z"
       sodipodi:nodetypes="ccccccccccccccccccccc"
       inkscape:export-xdpi="30.719999"
       inkscape:export-ydpi="30.719999" />
    <path
       style="fill:#cccccc;stroke:none;stroke-width:0.214864px;stroke-linecap:butt;stroke-linejoin:miter;stroke-opacity:1"
       d="m 50.05536,75.923818 c -0.362573,1.762153 1.504226,2.773728 2.821596,2.767334 1.304519,-0.0063 3.092902,-1.166621 2.767334,-2.767334 -2.052891,-0.813922 -3.717742,-0.829293 -5.58893,0 z"
       id="path3372"
       sodipodi:nodetypes="cccc"
       inkscape:export-xdpi="30.719999"
       inkscape:export-ydpi="30.719999" />
    <path
       style="fill:#1a1a1a;stroke:#000000;stroke-width:0.236437px;stroke-linecap:butt;stroke-linejoin:miter;stroke-opacity:1"
       d="m 58.74921,66.022239 c -0.578853,-0.690655 -0.350066,-1.912656 0.08443,-2.70214 0.967404,-1.75774 3.017527,-2.970133 4.982072,-3.377675 1.262154,-0.261832 2.504809,0.01933 3.525445,1.161077 0.192899,0.403288 0.01335,0.491276 -0.358878,0.738866 -1.501555,0.556611 -1.845551,-0.687221 -2.343262,0.316658 0.30797,0.41229 0.19338,1.09578 -0.02111,1.625504 -0.548334,1.354216 -2.128051,2.225601 -3.546558,2.575476 -0.759434,0.187316 -1.819705,0.261718 -2.322147,-0.337766 z"
       id="path3374"
       sodipodi:nodetypes="cccccccccc"
       inkscape:export-xdpi="30.719999"
       inkscape:export-ydpi="30.719999" />
    <path
       style="fill:#1a1a1a;stroke:#000000;stroke-width:0.236438px;stroke-linecap:butt;stroke-linejoin:miter;stroke-opacity:1"
       d="m 46.767217,66.059314 c 0.578853,-0.690655 0.350067,-1.912656 -0.08443,-2.70214 -0.967404,-1.75774 -3.017528,-2.970133 -4.982072,-3.377675 -1.262154,-0.261832 -2.50481,0.01933 -3.525445,1.161077 -0.192899,0.403288 -0.01334,0.491276 0.358879,0.738866 1.501553,0.556611 1.84555,-0.687221 2.343261,0.316658 -0.30797,0.41229 -0.193381,1.09578 0.02111,1.625504 0.548333,1.354216 2.128051,2.225601 3.546557,2.575476 0.759435,0.187317 1.819707,0.261718 2.322146,-0.337766 z"
       id="path3374-3"
       sodipodi:nodetypes="cccccccccc"
       inkscape:export-xdpi="30.719999"
       inkscape:export-ydpi="30.719999" />
    <path
       style="fill:#1a1a1a;stroke:#000000;stroke-width:0.195036px;stroke-linecap:butt;stroke-linejoin:miter;stroke-opacity:1"
       d="m 58.197075,59.714748 c -0.644174,-0.370972 -0.813286,-1.382474 -0.700444,-2.117219 0.251235,-1.635871 1.495796,-3.156143 2.902176,-4.028661 0.903553,-0.560563 1.9459,-0.69495 3.060165,-0.09974 0.263736,0.257746 0.149576,0.376798 -0.06861,0.674098 C 62.3849,55 61.765879,54.133926 61.664839,55.052677 c 0.355433,0.232104 0.46038,0.794066 0.44436,1.265223 -0.04096,1.204494 -1.017759,2.327271 -2.01748,3.000352 -0.535226,0.360354 -1.335508,0.718501 -1.894647,0.396499 z"
       id="path3374-9"
       sodipodi:nodetypes="cccccccccc"
       inkscape:export-xdpi="30.719999"
       inkscape:export-ydpi="30.719999" />
    <path
       style="fill:#1a1a1a;stroke:#000000;stroke-width:0.195036px;stroke-linecap:butt;stroke-linejoin:miter;stroke-opacity:1"
       d="m 47.620837,59.425633 c 0.644174,-0.370973 0.813285,-1.382475 0.700444,-2.11722 -0.251236,-1.63587 -1.495796,-3.156143 -2.902178,-4.028661 -0.903551,-0.560563 -1.9459,-0.69495 -3.060164,-0.09974 -0.263736,0.257746 -0.149576,0.376799 0.06861,0.674099 1.005462,0.856773 1.624484,-0.0093 1.725524,0.90945 -0.355433,0.232104 -0.46038,0.794068 -0.44436,1.265224 0.04096,1.204493 1.017759,2.32727 2.01748,3.000351 0.535226,0.360355 1.335508,0.718501 1.894647,0.396499 z"
       id="path3374-9-6"
       sodipodi:nodetypes="cccccccccc"
       inkscape:export-xdpi="30.719999"
       inkscape:export-ydpi="30.719999" />
  </g>
  <g
     inkscape:groupmode="layer"
     id="layer2"
     inkscape:label="7_eyes"
     style="display:none">
    <path
       id="path3456"
       style="fill:#000000;stroke:#000000;stroke-width:0.240873px;stroke-linecap:butt;stroke-linejoin:miter;stroke-opacity:1"
       d="m 52.256792,54.786998 c -0.511866,0.6392 -0.291146,2.111054 -0.561506,3.085062 -0.411588,1.482797 -1.368676,2.51831 -1.590452,4.112802 -0.183338,1.318147 -0.153959,2.897257 0.280754,4.034499 0.542886,1.420231 1.572797,2.609731 2.572907,2.609731 1.000109,0 2.030018,-1.1895 2.572904,-2.609731 0.434714,-1.137242 0.464092,-2.716352 0.280754,-4.034499 -0.221775,-1.594492 -1.178863,-2.630005 -1.590452,-4.112802 -0.27036,-0.974008 -0.04964,-2.445862 -0.561506,-3.085062 -0.376302,-0.469913 -1.0271,-0.469913 -1.403403,0 z"
       sodipodi:nodetypes="ssssssssss" />
    <path
       style="fill:#1a1a1a;stroke:#000000;stroke-width:0.126701px;stroke-linecap:butt;stroke-linejoin:miter;stroke-opacity:1"
       d="m 36.44932,55.09631 c 0.358927,-0.226771 0.517831,-1.019516 0.511541,-1.62126 -0.01401,-1.339748 -0.549182,-2.695935 -1.213761,-3.550334 -0.426972,-0.548923 -0.955777,-0.771258 -1.573342,-0.41629 -0.154441,0.177758 -0.103929,0.285779 -0.01226,0.548237 0.458643,0.797714 0.83961,0.171059 0.826787,0.919094 -0.199983,0.147115 -0.293944,0.586333 -0.31901,0.966011 -0.06407,0.970631 0.360951,1.978558 0.829625,2.628302 0.250918,0.347857 0.638876,0.723073 0.950423,0.526237 z"
       id="path3374-1-6"
       sodipodi:nodetypes="cccccccccc"
       inkscape:transform-center-x="-0.12227861"
       inkscape:transform-center-y="0.56921496" />
    <path
       style="fill:#1a1a1a;stroke:#000000;stroke-width:0.126701px;stroke-linecap:butt;stroke-linejoin:miter;stroke-opacity:1"
       d="m 69.466699,55.58023 c -0.358927,-0.226771 -0.517831,-1.019516 -0.511541,-1.62126 0.01401,-1.339748 0.549182,-2.695935 1.213761,-3.550334 0.426972,-0.548923 0.955777,-0.771258 1.573342,-0.41629 0.154441,0.177758 0.103929,0.285779 0.01226,0.548237 -0.458643,0.797714 -0.83961,0.171059 -0.826787,0.919094 0.199983,0.147115 0.293944,0.586333 0.31901,0.966011 0.06407,0.970631 -0.360951,1.978558 -0.829625,2.628302 -0.250918,0.347857 -0.638876,0.723073 -0.950423,0.526237 z"
       id="path3374-1-6-8"
       sodipodi:nodetypes="cccccccccc"
       inkscape:transform-center-x="0.1222785"
       inkscape:transform-center-y="0.56921496" />
  </g>
</svg>
