<?xml version="1.0" encoding="UTF-8" standalone="no"?>
<svg
   xmlns:dc="http://purl.org/dc/elements/1.1/"
   xmlns:cc="http://creativecommons.org/ns#"
   xmlns:rdf="http://www.w3.org/1999/02/22-rdf-syntax-ns#"
   xmlns:svg="http://www.w3.org/2000/svg"
   xmlns="http://www.w3.org/2000/svg"
   xmlns:sodipodi="http://sodipodi.sourceforge.net/DTD/sodipodi-0.dtd"
   xmlns:inkscape="http://www.inkscape.org/namespaces/inkscape"
   width="400"
   height="400"
   viewBox="0 0 105.83333 105.83334"
   version="1.1"
   id="svg1451"
   inkscape:version="1.0.1 (3bc2e813f5, 2020-09-07)"
   sodipodi:docname="neocanine_south.svg"
   inkscape:export-filename="C:\Users\matly\neocanine_south.png"
   inkscape:export-xdpi="30.719999"
   inkscape:export-ydpi="30.719999">
  <defs
     id="defs1445" />
  <sodipodi:namedview
     id="base"
     pagecolor="#292929"
     bordercolor="#444444"
     borderopacity="1"
     inkscape:pageopacity="0"
     inkscape:pageshadow="2"
     inkscape:zoom="1.4"
     inkscape:cx="35.302161"
     inkscape:cy="250.29053"
     inkscape:document-units="mm"
     inkscape:current-layer="layer1"
     inkscape:document-rotation="0"
     showgrid="true"
     units="px"
     inkscape:window-width="3440"
     inkscape:window-height="1377"
     inkscape:window-x="-8"
     inkscape:window-y="-8"
     inkscape:window-maximized="1"
     inkscape:snap-global="false">
    <inkscape:grid
       type="xygrid"
       id="grid4073"
       spacingx="26.458334"
       spacingy="26.458334" />
  </sodipodi:namedview>
  <metadata
     id="metadata1448">
    <rdf:RDF>
      <cc:Work
         rdf:about="">
        <dc:format>image/svg+xml</dc:format>
        <dc:type
           rdf:resource="http://purl.org/dc/dcmitype/StillImage" />
        <dc:title></dc:title>
      </cc:Work>
    </rdf:RDF>
  </metadata>
  <g
     inkscape:label="Layer 1"
     inkscape:groupmode="layer"
     id="layer1">
    <path
       style="fill:#f9f9f9;stroke:#000000;stroke-width:2.64583333;stroke-linecap:butt;stroke-linejoin:miter;stroke-miterlimit:8.33333302;stroke-dasharray:none;stroke-opacity:1"
       d="M 36.776652,13.826159 C 14.716636,35.442269 23.40912,53.175173 31.002843,70.46444 c 3.572872,-0.209185 6.546972,-0.0942 10.090025,-0.319501 5.762074,-9.72563 6.352673,-19.282215 12.401503,-23.842332 6.766459,4.119519 8.707838,16.34772 11.621914,23.316281 5.268498,0.28125 5.253555,0.456472 9.464188,0.3663 C 85.712493,47.551575 86.424947,30.586516 68.000837,14.072112 60.013568,8.5499612 57.479812,6.8735538 52.275783,6.8325624 47.071752,6.791572 45.135067,8.1126901 36.776652,13.826159 Z"
       id="path2014-1"
       sodipodi:nodetypes="ccccccccc" />
    <path
       style="fill:#f9f9f9;stroke:#000000;stroke-width:2.64583333;stroke-linecap:round;stroke-linejoin:miter;stroke-miterlimit:8.33333302;stroke-dasharray:none;stroke-opacity:1"
       d="m 72.022528,17.84351 c 0,0 5.348241,3.610693 8.38092,10.969616 -3.292819,-0.648838 -2.162057,-1.077642 -4.279809,-1.363876 0.6385,8.331816 0.195896,6.195343 -1.52416,14.234347 -0.325126,-0.486161 -6.267322,-6.587071 -6.478925,-3.025504 -2.692757,-3.443329 -3.447128,-4.79003 -5.927331,-6.614644"
       id="path2018-3"
       sodipodi:nodetypes="cccccc" />
    <path
       style="fill:#f9f9f9;stroke:#000000;stroke-width:2.64583333;stroke-linecap:round;stroke-linejoin:miter;stroke-miterlimit:8.33333302;stroke-dasharray:none;stroke-opacity:1"
       d="m 27.705959,62.49678 c 0,0 -0.238534,-4.592713 -2.609873,-0.845085 -1.282989,-5.402089 -1.37285,-5.973904 -2.344423,-7.713613 -0.963554,0.171868 -0.952421,0.757586 -1.575155,1.652917 C 19.125146,49.151511 24.4263,31.906556 24.4263,31.906556"
       id="path2020-2"
       sodipodi:nodetypes="ccccc" />
    <path
       style="fill:#f9f9f9;stroke:#000000;stroke-width:2.64583333;stroke-linecap:round;stroke-linejoin:miter;stroke-miterlimit:8.33333302;stroke-dasharray:none;stroke-opacity:1"
       d="m 77.57512,62.726815 c 0,0 1.142226,-4.310308 4.134854,-0.901564 0.605225,-4.7808 0.356192,-8.684982 0.198155,-10.594132 0.963557,0.171866 1.46075,0.531668 2.083475,1.426998 0.413429,-13.21718 -3.814596,-22.102985 -3.814596,-22.102985"
       id="path2020-2-5"
       sodipodi:nodetypes="ccccc" />
    <path
       style="fill:#f9f9f9;stroke:#000000;stroke-width:2.64583333;stroke-linecap:round;stroke-linejoin:miter;stroke-miterlimit:8.33333302;stroke-dasharray:none;stroke-opacity:1"
       d="m 35.591119,14.638886 c 0,0 -2.608031,1.239194 -8.651168,5.572157 3.392177,0.13957 -0.993706,2.159179 -3.244291,8.832119 1.372478,-0.479395 1.597244,-0.286912 4.279812,-1.363876 -0.525537,3.587435 -0.195895,6.195344 1.524155,14.234348 2.026274,-2.86078 3.609938,-8.252781 3.203048,-0.935718 4.151053,-4.854791 4.746182,-6.31501 7.226387,-8.139624"
       id="path2018-3-3"
       sodipodi:nodetypes="ccccccc" />
    <path
       style="fill:#f9f9f9;stroke:#000000;stroke-width:2.64583333;stroke-linecap:round;stroke-linejoin:miter;stroke-miterlimit:8.33333302;stroke-dasharray:none;stroke-opacity:1"
       d="m 56.306093,53.273457 c -0.411166,2.055836 -2.049901,6.833475 1.134473,16.554334 0.737101,-1.524702 0.803688,-0.819593 1.37888,-1.744576 0.509618,0.89994 1.195736,2.394959 1.522012,4.297787 3.376516,-2.568798 3.415308,-3.652572 3.415308,-3.652572"
       id="path2124"
       sodipodi:nodetypes="ccccc" />
    <path
       style="fill:#f9f9f9;stroke:#000000;stroke-width:2.64583333;stroke-linecap:round;stroke-linejoin:miter;stroke-miterlimit:8.33333302;stroke-dasharray:none;stroke-opacity:1"
       d="m 48.813729,53.450473 c 0.411165,2.055837 3.687355,4.796639 0.502986,14.517497 -0.497472,-0.486314 -0.44425,-0.340335 -0.939563,-2.143953 -0.269991,1.49901 -2.074371,4.351917 -2.400647,6.254745 -3.376515,-2.568797 -3.495183,-4.131831 -3.495183,-4.131831"
       id="path2124-2"
       sodipodi:nodetypes="ccccc" />
    <path
       id="path2778"
       style="fill:#f9f9f9;stroke:#000000;stroke-width:2.64583333;stroke-linecap:round;stroke-linejoin:miter;stroke-miterlimit:8.33333302;stroke-dasharray:none;stroke-opacity:1"
       d="m 41.956011,23.173441 c -3.551278,4.26639 -6.986588,12.287729 -10.18901,26.920718 1.334416,-1.893989 2.822715,-0.91927 3.697198,-1.778198 l 37.356883,6.046444 c -0.150643,-3.315142 -0.172043,-3.700976 1.247977,-1.202598 -2.015495,-16.703325 -4.938812,-14.764115 -7.442357,-21.544913 0.80844,-0.114091 1.198428,1.02529 2.210673,0.551839 -1.344234,-5.195413 -4.029329,-8.648126 -7.035676,-10.748692"
       sodipodi:nodetypes="cccccccc" />
    <path
       style="fill:#f9f9f9;stroke:#000000;stroke-width:2.64583333;stroke-linecap:butt;stroke-linejoin:miter;stroke-miterlimit:8.33333302;stroke-dasharray:none;stroke-opacity:1"
       d="m 37.430532,46.421477 c -4.432413,1.238314 -6.208135,15.193959 -6.812555,26.554207 2.241521,9.552819 1.479435,16.471107 8.510304,30.157636 2.941534,-0.20919 5.3901,-0.0942 8.307085,-0.31952 4.743897,-9.725617 0.580095,-12.165628 6.769088,-11.981367 5.570806,0.165859 2.519092,5.051572 4.918242,12.020137 4.337541,0.28124 6.516356,0.53778 9.74485,0.47925 C 73.910449,90.059193 76.554451,82.103568 77.513515,72.302618 76.715806,59.697236 69.860114,46.74098 66.984585,46.74098"
       id="path2014"
       sodipodi:nodetypes="ccccccccc" />
    <path
       style="fill:#f9f9f9;stroke:#000000;stroke-width:2.64583333;stroke-linecap:round;stroke-linejoin:miter;stroke-miterlimit:8.33333302;stroke-dasharray:none;stroke-opacity:1"
       d="m 71.204769,86.432262 c 0,0 1.255187,2.072016 3.626526,5.819642 1.28299,-5.402087 1.372849,-5.973904 2.344422,-7.713613 0.963554,0.171869 0.952421,0.757588 1.575155,1.65292 2.051363,-6.43949 -2.797946,-22.215945 -2.797946,-22.215945"
       id="path2020"
       sodipodi:nodetypes="ccccc" />
    <path
       style="fill:#f9f9f9;stroke:#000000;stroke-width:2.64583333;stroke-linecap:round;stroke-linejoin:miter;stroke-miterlimit:8.33333302;stroke-dasharray:none;stroke-opacity:1"
       d="m 35.571463,88.630378 c 0,0 -1.024142,1.925161 -2.908758,3.643005 -0.706691,-4.656109 -1.453735,-5.548655 -1.807385,-6.325842 -0.693197,0.389128 -0.880064,-0.07954 -1.214334,1.35554 -2.019184,-3.148801 -1.037764,-14.344283 -2.272448,-16.37159 1.52951,-2.902493 3.588341,-6.275989 -0.142476,-3.896298 1.496148,-7.144424 8.391361,-13.491394 8.391361,-13.491394"
       id="path2020-6"
       sodipodi:nodetypes="ccccccc" />
    <path
       style="fill:#f9f9f9;stroke:#000000;stroke-width:2.64583333;stroke-linecap:round;stroke-linejoin:miter;stroke-miterlimit:8.33333302;stroke-dasharray:none;stroke-opacity:1"
       d="m 75.265045,69.341545 c 8.05e-4,1.41345 -3.454201,5.505167 -6.601733,8.466456 -0.507515,-1.502151 0.152513,-1.178591 -0.661375,-2.117115 -2.801166,9.496221 -8.250947,15.697642 -13.485741,22.659601 -0.77259,-3.623318 -0.62377,-5.599475 -1.147914,-8.116159 -0.506365,1.92689 -0.57296,3.961323 -1.170634,5.876661 -4.59517,-8.054466 -5.752372,-10.575003 -6.978573,-14.711323 -0.3478,2.145949 -0.510454,4.34902 -0.61419,6.236496 -5.499173,-9.163175 -7.365809,-8.673253 -7.845653,-11.232009 -0.568918,1.951489 -0.721076,1.206614 -1.49008,2.83529 C 32.804357,72.067409 30.995146,68.38339 30.712021,64.746139"
       id="path2016" />
  </g>
</svg>
