<?xml version="1.0" encoding="UTF-8" standalone="no"?>
<svg
   xmlns:dc="http://purl.org/dc/elements/1.1/"
   xmlns:cc="http://creativecommons.org/ns#"
   xmlns:rdf="http://www.w3.org/1999/02/22-rdf-syntax-ns#"
   xmlns:svg="http://www.w3.org/2000/svg"
   xmlns="http://www.w3.org/2000/svg"
   xmlns:sodipodi="http://sodipodi.sourceforge.net/DTD/sodipodi-0.dtd"
   xmlns:inkscape="http://www.inkscape.org/namespaces/inkscape"
   width="400"
   height="400"
   viewBox="0 0 105.83333 105.83334"
   version="1.1"
   id="svg2791"
   sodipodi:docname="neocanine_head_east.svg"
   inkscape:export-filename="D:\SteamLibrary\steamapps\common\RimWorld\Mods\Neocanine\Textures\Things\Pawn\Neocanine\Heads\Average_Normal_east.png"
   inkscape:export-xdpi="30.719999"
   inkscape:export-ydpi="30.719999"
   inkscape:version="1.0.1 (3bc2e813f5, 2020-09-07)">
  <defs
     id="defs2785" />
  <sodipodi:namedview
     id="base"
     pagecolor="#222222"
     bordercolor="#666666"
     borderopacity="1.0"
     inkscape:pageopacity="0"
     inkscape:pageshadow="2"
     inkscape:zoom="1.4"
     inkscape:cx="1.6222571"
     inkscape:cy="164.69141"
     inkscape:document-units="mm"
     inkscape:current-layer="layer1"
     inkscape:document-rotation="0"
     showgrid="true"
     units="px"
     inkscape:snap-global="false"
     inkscape:snap-grids="false"
     inkscape:window-width="2345"
     inkscape:window-height="1303"
     inkscape:window-x="102"
     inkscape:window-y="62"
     inkscape:window-maximized="0">
    <inkscape:grid
       type="xygrid"
       id="grid3391"
       spacingx="2.6458334"
       spacingy="2.6458334"
       color="#ff3f5a"
       opacity="0.1254902"
       empcolor="#ffda3f"
       empopacity="0.25098039" />
  </sodipodi:namedview>
  <metadata
     id="metadata2788">
    <rdf:RDF>
      <cc:Work
         rdf:about="">
        <dc:format>image/svg+xml</dc:format>
        <dc:type
           rdf:resource="http://purl.org/dc/dcmitype/StillImage" />
        <dc:title></dc:title>
      </cc:Work>
    </rdf:RDF>
  </metadata>
  <g
     inkscape:groupmode="layer"
     id="layer3"
     inkscape:label="Layer 2"
     style="display:inline">
    <path
       style="fill:#f9f9f9;stroke:#000000;stroke-width:2.64583;stroke-linecap:butt;stroke-linejoin:miter;stroke-miterlimit:4;stroke-dasharray:none;stroke-opacity:1"
       d="m 59.237118,69.988141 c 1.802263,-1.25808 12.547156,6.314713 19.525707,2.441447 4.977176,-3.105332 7.021047,-2.143243 6.743639,-5.27627 -3.005931,-3.397957 -6.968689,-4.931645 -9.449406,-8.315476 -2.626448,-3.582616 -2.395304,-8.905201 -5.38616,-12.189732 -4.129913,-4.535434 -9.992753,-8.101472 -16.063989,-8.976934 -22.190871,0.403386 -28.517707,19.909772 -8.976934,32.69494 4.503183,0.556702 8.720327,-0.08176 13.607143,-0.377975 z"
       id="path5859"
       sodipodi:nodetypes="cccccccc" />
    <path
       style="fill:#f9f9f9;stroke:#000000;stroke-width:2.646;stroke-linecap:butt;stroke-linejoin:miter;stroke-miterlimit:4;stroke-dasharray:none;stroke-opacity:1"
       d="m 50.083478,40.307514 -4e-6,-3e-6 c 0,0 -9.793392,-2.861628 -16.380877,6.225229 1.368267,-0.557333 1.318083,-0.596305 1.970537,-0.413844 -4.631549,3.617011 -10.938112,5.545984 -12.047991,15.449778 1.658663,-1.917443 1.984011,-2.262333 3.874256,-3.449035 -3.437784,6.073149 -1.35048,8.064175 -0.09449,11.433781 3.733392,1.089607 11.24301,2.103213 12.860449,1.890454 3.099272,-0.407676 -1.480773,-8.364928 10.614466,-4.396173"
       id="path5863"
       sodipodi:nodetypes="ccccccccc" />
    <path
       style="fill:#f9f9f9;fill-opacity:1;stroke:#000000;stroke-width:2.64583;stroke-linecap:butt;stroke-linejoin:miter;stroke-miterlimit:4;stroke-dasharray:none;stroke-opacity:1"
       d="m 25.883461,61.894911 c 0,0 0.327049,5.491326 -4.853689,11.882605 3.778118,0.393927 4.752518,-1.712046 7.017793,-3.092596 -1.502208,2.903869 -2.170068,3.370166 -2.045291,8.841673 4.711912,-2.255227 9.588873,-4.371751 12.003048,-8.215422 -1.678712,4.462309 -0.427216,8.184605 13.293063,11.654718 -0.61941,-1.249026 -2.014219,-1.357385 0.267269,-2.539061 1.903513,1.109805 7.391294,5.226839 11.225321,6.280835 0.366768,-7.25998 -1.98465,-9.070144 -2.425573,-10.854298 0.796878,0.545368 2.229369,0.790471 4.817112,-0.409013 -4.294448,-4.072631 -5.356976,-8.818262 -5.356976,-8.818262"
       id="path842"
       sodipodi:nodetypes="ccccccccccc" />
    <path
       style="fill:#f9f9f9;stroke:#000000;stroke-width:2.646;stroke-linecap:round;stroke-linejoin:miter;stroke-miterlimit:4;stroke-dasharray:none;stroke-opacity:1"
       d="m 73.745184,73.6623 c -0.267271,0 -22.288997,-6.217376 -18.82318,-0.22979 -7.574519,0.78943 -12.429159,-0.972393 -14.358455,-1.761432 -0.62955,-0.670102 -0.95074,-0.995534 -1.345489,-1.923567 -0.316035,0.639664 -0.274941,0.50615 0.250576,1.703522 -4.957988,-1.305064 -4.377883,-4.492906 -4.359845,-5.779383 -0.99413,-0.486574 -1.411739,-0.428109 -2.649894,1.890157 -3.020667,-12.645586 6.325832,-16.240494 6.325832,-16.240494"
       id="path5853"
       sodipodi:nodetypes="cccccccc" />
    <path
       style="opacity:1;fill:#1a1a1a;stroke:none;stroke-width:0.236438px;stroke-linecap:butt;stroke-linejoin:miter;stroke-opacity:1"
       d="m 71.914893,59.812667 c 0.347318,-0.831533 -0.234462,-1.93024 -0.884049,-2.554829 -1.446287,-1.390603 -3.764177,-1.938593 -5.761047,-1.743578 -1.282923,0.12529 -2.38578,0.76322 -3.020775,2.156799 -0.06426,0.442404 0.133336,0.473024 0.562338,0.598743 1.599142,0.08498 1.557748,-1.204885 2.331437,-0.394394 -0.171454,0.485214 0.141177,1.103721 0.503472,1.545712 0.926188,1.129933 2.693554,1.492204 4.151936,1.404487 0.780784,-0.04696 1.815224,-0.291179 2.116693,-1.012942 z"
       id="path3374-3-0"
       sodipodi:nodetypes="cccccccccc"
       inkscape:export-xdpi="30.719999"
       inkscape:export-ydpi="30.719999" />
  </g>
  <g
     inkscape:groupmode="layer"
     id="layer2"
     inkscape:label="Layer 3"
     style="display:none">
    <path
       style="fill:#f9f9f9;stroke:#000000;stroke-width:2.64583;stroke-linecap:butt;stroke-linejoin:miter;stroke-miterlimit:4;stroke-dasharray:none;stroke-opacity:1"
       d="m 56.619454,42.172122 c 0,0 -0.32474,-9.169674 -2.785968,-15.396145 -2.979644,-1.197842 -3.680526,-0.150817 -6.405984,2.177974 -7.002384,8.05728 -7.397099,12.56991 -7.89044,17.763702 0.310203,2.498034 3.913273,4.164216 3.913273,4.164216"
       id="path5861"
       sodipodi:nodetypes="ccccc"
       inkscape:export-filename="D:\SteamLibrary\steamapps\common\RimWorld\Mods\Neocanine\Textures\Things\Pawn\Neocanine\Heads\neocanine_ear_r_east.png.png"
       inkscape:export-xdpi="30.719999"
       inkscape:export-ydpi="30.719999" />
  </g>
  <g
     inkscape:label="Layer 1"
     inkscape:groupmode="layer"
     id="layer1"
     style="display:none;opacity:0.435484"
     sodipodi:insensitive="true">
    <path
       id="path3354"
       style="fill:#f9f9f9;stroke:#000000;stroke-width:3.22297;stroke-linecap:butt;stroke-linejoin:miter;stroke-miterlimit:4;stroke-dasharray:none;stroke-opacity:1"
       d="m 58.253714,74.397858 c 1.27917,-1.920169 1.523777,-2.729192 2.090731,-4.166776 5.604278,-3.286118 10.664366,-4.644828 18.448961,-4.883547 -1.658874,-2.345348 -1.541799,-1.868484 -1.302195,-3.066013 1.600629,0.102421 1.007068,-0.07282 2.170466,0.02727 0.487314,-8.039989 -3.219339,-10.308932 -9.22448,-16.604149 3.610002,-6.328463 4.320688,-11.47286 4.557895,-15.844148 0.0486,-1.517683 0.207848,-2.823384 -0.976542,-4.449624 -5.673287,2.47151 -7.211941,4.115902 -14.10803,9.875789 -2.383647,-1.748693 -4.489581,-2.011427 -7.216841,-2.00764 -2.727261,-0.0038 -4.833196,0.258947 -7.216842,2.00764 -6.896089,-5.759887 -8.434744,-7.404279 -14.108029,-9.875789 -1.184392,1.62624 -1.025145,2.931941 -0.976541,4.449624 0.237206,4.371288 0.947891,9.515685 4.557894,15.844148 -6.005142,6.295219 -9.711796,8.564157 -9.224481,16.604149 1.163399,-0.100104 0.569837,0.07514 2.170466,-0.02727 0.239603,1.197531 0.35668,0.720665 -1.302195,3.066013 7.784595,0.238719 12.844684,1.597429 18.448961,4.883547 0.566955,1.437584 0.811561,2.246604 2.090731,4.166776 2.420013,0.552613 3.900941,0.539063 5.560036,0.539063 1.659095,0 3.140019,0.01355 5.560035,-0.539063 z"
       sodipodi:nodetypes="ccccccccccccccccccccc"
       inkscape:export-xdpi="30.719999"
       inkscape:export-ydpi="30.719999" />
    <path
       style="fill:#cccccc;stroke:none;stroke-width:0.214864px;stroke-linecap:butt;stroke-linejoin:miter;stroke-opacity:1"
       d="m 50.05536,68.957446 c -0.362573,1.762153 1.504226,2.773728 2.821596,2.767334 1.304519,-0.0063 3.092902,-1.166621 2.767334,-2.767334 -2.052891,-0.813922 -3.717742,-0.829293 -5.58893,0 z"
       id="path3372"
       sodipodi:nodetypes="cccc"
       inkscape:export-xdpi="30.719999"
       inkscape:export-ydpi="30.719999" />
    <path
       style="fill:#1a1a1a;stroke:#000000;stroke-width:0.236437px;stroke-linecap:butt;stroke-linejoin:miter;stroke-opacity:1"
       d="m 58.74921,57.585885 c -0.578853,-0.690655 -0.350066,-1.912656 0.08443,-2.70214 0.967404,-1.75774 3.017527,-2.970133 4.982072,-3.377675 1.262154,-0.261832 2.504809,0.01933 3.525445,1.161077 0.192899,0.403288 0.01335,0.491276 -0.358878,0.738866 -1.501555,0.556611 -1.845551,-0.687221 -2.343262,0.316658 0.30797,0.41229 0.19338,1.09578 -0.02111,1.625504 -0.548334,1.354216 -2.128051,2.225601 -3.546558,2.575476 -0.759434,0.187316 -1.819705,0.261718 -2.322147,-0.337766 z"
       id="path3374"
       sodipodi:nodetypes="cccccccccc"
       inkscape:export-xdpi="30.719999"
       inkscape:export-ydpi="30.719999" />
    <path
       style="fill:#1a1a1a;stroke:#000000;stroke-width:0.236438px;stroke-linecap:butt;stroke-linejoin:miter;stroke-opacity:1"
       d="m 46.767217,57.62296 c 0.578853,-0.690655 0.350067,-1.912656 -0.08443,-2.70214 -0.967404,-1.75774 -3.017528,-2.970133 -4.982072,-3.377675 -1.262154,-0.261832 -2.50481,0.01933 -3.525445,1.161077 -0.192899,0.403288 -0.01334,0.491276 0.358879,0.738866 1.501553,0.556611 1.84555,-0.687221 2.343261,0.316658 -0.30797,0.41229 -0.193381,1.09578 0.02111,1.625504 0.548333,1.354216 2.128051,2.225601 3.546557,2.575476 0.759435,0.187317 1.819707,0.261718 2.322146,-0.337766 z"
       id="path3374-3"
       sodipodi:nodetypes="cccccccccc"
       inkscape:export-xdpi="30.719999"
       inkscape:export-ydpi="30.719999" />
  </g>
</svg>
