<?xml version="1.0" encoding="UTF-8" standalone="no"?>
<svg
   xmlns:dc="http://purl.org/dc/elements/1.1/"
   xmlns:cc="http://creativecommons.org/ns#"
   xmlns:rdf="http://www.w3.org/1999/02/22-rdf-syntax-ns#"
   xmlns:svg="http://www.w3.org/2000/svg"
   xmlns="http://www.w3.org/2000/svg"
   xmlns:sodipodi="http://sodipodi.sourceforge.net/DTD/sodipodi-0.dtd"
   xmlns:inkscape="http://www.inkscape.org/namespaces/inkscape"
   width="400"
   height="400"
   viewBox="0 0 105.83333 105.83334"
   version="1.1"
   id="svg1451"
   inkscape:version="1.0.1 (3bc2e813f5, 2020-09-07)"
   sodipodi:docname="neocanine_north.svg"
   inkscape:export-filename="C:\Users\matly\neocanine_north.png"
   inkscape:export-xdpi="30.719999"
   inkscape:export-ydpi="30.719999">
  <defs
     id="defs1445" />
  <sodipodi:namedview
     id="base"
     pagecolor="#292929"
     bordercolor="#444444"
     borderopacity="1"
     inkscape:pageopacity="0"
     inkscape:pageshadow="2"
     inkscape:zoom="0.7"
     inkscape:cx="52.902135"
     inkscape:cy="-26.503588"
     inkscape:document-units="mm"
     inkscape:current-layer="layer1"
     inkscape:document-rotation="0"
     showgrid="true"
     units="px"
     inkscape:window-width="1267"
     inkscape:window-height="1198"
     inkscape:window-x="682"
     inkscape:window-y="41"
     inkscape:window-maximized="0"
     inkscape:snap-global="false">
    <inkscape:grid
       type="xygrid"
       id="grid4654"
       spacingx="26.458334" />
  </sodipodi:namedview>
  <metadata
     id="metadata1448">
    <rdf:RDF>
      <cc:Work
         rdf:about="">
        <dc:format>image/svg+xml</dc:format>
        <dc:type
           rdf:resource="http://purl.org/dc/dcmitype/StillImage" />
        <dc:title></dc:title>
      </cc:Work>
    </rdf:RDF>
  </metadata>
  <g
     inkscape:label="Layer 1"
     inkscape:groupmode="layer"
     id="layer1">
    <path
       style="fill:#f9f9f9;stroke:#000000;stroke-width:2.64583333;stroke-linecap:butt;stroke-linejoin:miter;stroke-miterlimit:8.30769253;stroke-dasharray:none;stroke-opacity:1"
       d="m 47.482469,66.080565 c 4.342358,-8.902417 0.530994,-11.135898 6.19613,-10.967232 5.099275,0.151819 2.305868,4.62399 4.501947,11.002712 3.970397,0.257433 5.96479,0.492266 8.920013,0.43869 C 71.716615,54.405542 74.13682,47.123306 75.014706,38.151941 74.284517,26.613519 68.009114,14.753923 65.376979,14.753923 54.848438,11.39064 49.546138,11.601367 38.324477,14.461463 c -4.05724,1.133499 -5.682659,13.907894 -6.235919,24.306573 2.051791,8.744237 1.354211,15.076939 7.789964,27.604987 2.692554,-0.191482 4.933865,-0.08626 7.603947,-0.292458 z"
       id="path2014"
       sodipodi:nodetypes="cccccccccc" />
    <path
       style="fill:#f9f9f9;stroke:#000000;stroke-width:2.64583333;stroke-linecap:round;stroke-linejoin:miter;stroke-miterlimit:8.30769253;stroke-dasharray:none;stroke-opacity:1"
       d="m 36.546711,51.085606 c 0,0 -1.148944,1.896634 -3.319565,5.327048 -1.174393,-4.944837 -1.256646,-5.468253 -2.145982,-7.060707 -0.881996,0.15732 -0.871805,0.693463 -1.441829,1.513011 -1.877729,-5.894431 2.561119,-20.335515 2.561119,-20.335515"
       id="path2020"
       sodipodi:nodetypes="ccccc" />
    <path
       style="fill:#f9f9f9;stroke:#000000;stroke-width:2.64583333;stroke-linecap:round;stroke-linejoin:miter;stroke-miterlimit:8.30769253;stroke-dasharray:none;stroke-opacity:1"
       d="m 32.876767,31.589609 c 0,0 0.261108,0.11453 -3.570886,1.454367 2.151448,-4.604551 2.412139,-5.065822 2.704454,-6.866205 -0.788902,-0.424616 -1.113971,0.0019 -2.069777,0.289996 5.311414,-10.526103 12.733609,-13.669264 12.598177,-13.463571"
       id="path2020-0"
       sodipodi:nodetypes="ccccc" />
    <path
       style="fill:#f9f9f9;stroke:#000000;stroke-width:2.64583333;stroke-linecap:round;stroke-linejoin:miter;stroke-miterlimit:8.30769253;stroke-dasharray:none;stroke-opacity:1"
       d="m 69.163899,53.097667 c 0,0 0.937455,1.762208 2.662551,3.334649 0.646875,-4.262002 1.330686,-5.079 1.654403,-5.790402 0.634522,0.35619 0.805572,-0.07281 1.111548,1.240802 1.848274,-2.882276 0.949925,-13.130137 2.080101,-14.985846 -1.400048,-2.656815 -3.284612,-5.744768 0.130416,-3.566502 -1.369509,-6.539698 -7.681089,-12.34944 -7.681089,-12.34944"
       id="path2020-6"
       sodipodi:nodetypes="ccccccc" />
    <path
       style="fill:#f9f9f9;stroke:#000000;stroke-width:2.64583333;stroke-linecap:round;stroke-linejoin:miter;stroke-miterlimit:8.30769253;stroke-dasharray:none;stroke-opacity:1"
       d="M 34.727568,21.882371 C 33.91036,22.323649 33.986192,22.145194 32.739171,23.118235 38.724539,8.0827668 45.582035,6.6344251 52.431236,7.0316102 57.34426,6.8124124 64.86936,8.5695523 67.381749,13.907863 66.4358,14.151098 66.071426,13.56598 65.31593,13.624596 c 2.339581,3.483651 5.071536,2.48715 6.955033,11.068527 -1.327019,-1.283548 -1.307303,-1.085228 -1.166527,0.617935"
       id="path2016"
       sodipodi:nodetypes="ccccccc" />
    <path
       style="fill:#f9f9f9;stroke:#000000;stroke-width:2.64583333;stroke-linecap:butt;stroke-linejoin:miter;stroke-miterlimit:8.30769253;stroke-dasharray:none;stroke-opacity:1"
       d="m 38.483966,50.202466 c -20.192784,19.786453 -12.23606,36.018385 -5.285095,51.844234 3.270453,-0.19148 5.992815,-0.0862 9.235973,-0.29246 5.274354,-8.902417 5.814962,-17.650103 11.351799,-21.824238 6.193726,3.770829 7.970778,14.963996 10.638199,21.342718 4.822556,0.25744 4.808874,0.41783 8.663105,0.33529 C 83.277715,81.073254 83.92987,65.544172 67.065236,50.4276"
       id="path2014-1"
       sodipodi:nodetypes="ccccccc" />
    <path
       style="fill:#f9f9f9;stroke:#000000;stroke-width:2.64583333;stroke-linecap:round;stroke-linejoin:miter;stroke-miterlimit:8.30769253;stroke-dasharray:none;stroke-opacity:1"
       d="m 30.181046,94.753446 c 0,0 -0.218343,-4.203969 -2.388965,-0.773554 -1.174393,-4.944837 -1.256647,-5.468254 -2.145982,-7.060707 -0.881996,0.15732 -0.871805,0.693463 -1.441829,1.513011 -1.877729,-5.894431 2.974719,-21.679716 2.974719,-21.679716"
       id="path2020-2"
       sodipodi:nodetypes="ccccc" />
    <path
       style="fill:#f9f9f9;stroke:#000000;stroke-width:2.64583333;stroke-linecap:round;stroke-linejoin:miter;stroke-miterlimit:8.30769253;stroke-dasharray:none;stroke-opacity:1"
       d="m 33.324804,31.197289 c 0,0 0.05086,5.215132 5.231305,10.953372 -0.0416,-2.136322 0.274767,-2.797994 1.139239,-3.830677 2.438809,8.579585 4.707926,10.581384 12.439902,16.180074 1.041022,-1.661573 1.365966,-2.489397 2.4487,-2.792039 0,0 0.803751,-0.04824 1.363481,1.745021 6.795174,-7.363254 9.436221,-10.087757 11.213921,-14.416569 0.315602,2.697168 0.737803,0.874948 1.307826,2.389339 1.357064,-1.655834 2.921735,-9.262045 2.921735,-9.262045"
       id="path2018"
       sodipodi:nodetypes="ccccccccc" />
    <path
       style="fill:#f9f9f9;stroke:#000000;stroke-width:2.64583333;stroke-linecap:round;stroke-linejoin:miter;stroke-miterlimit:8.30769253;stroke-dasharray:none;stroke-opacity:1"
       d="m 75.82912,94.964012 c 0,0 1.045543,-3.945468 3.784866,-0.825255 0.553993,-4.376135 0.326046,-7.949854 0.181382,-9.697408 0.881996,0.157319 1.337105,0.486664 1.907129,1.306212 0.378427,-12.098435 -3.491719,-20.232116 -3.491719,-20.232116"
       id="path2020-2-5"
       sodipodi:nodetypes="ccccc" />
    <path
       style="fill:#f9f9f9;stroke:#000000;stroke-width:2.64583;stroke-linecap:round;stroke-linejoin:miter;stroke-miterlimit:8.30769;stroke-dasharray:none;stroke-opacity:1"
       d="m 57.718066,80.379895 c -0.376364,1.881822 -1.876389,6.255067 1.038449,15.15312 0.674709,-1.395647 0.735663,-0.750219 1.262166,-1.596909 0.466483,0.823765 1.094526,2.192241 1.393186,3.934008 3.090715,-2.351367 3.126224,-3.343408 3.126224,-3.343408"
       id="path2124"
       sodipodi:nodetypes="ccccc" />
    <path
       style="fill:#f9f9f9;stroke:#000000;stroke-width:2.64583;stroke-linecap:round;stroke-linejoin:miter;stroke-miterlimit:8.30769;stroke-dasharray:none;stroke-opacity:1"
       d="m 49.991254,80.742379 c 0.376364,1.881822 3.375245,4.390638 0.460412,13.288691 -0.455364,-0.445153 -0.406646,-0.31153 -0.860035,-1.962483 -0.247138,1.372127 -1.898788,3.983555 -2.197448,5.725322 -3.090716,-2.351366 -3.199339,-3.782097 -3.199339,-3.782097"
       id="path2124-2"
       sodipodi:nodetypes="ccccc" />
  </g>
</svg>
