<?xml version="1.0" encoding="UTF-8" standalone="no"?>
<svg
   xmlns:dc="http://purl.org/dc/elements/1.1/"
   xmlns:cc="http://creativecommons.org/ns#"
   xmlns:rdf="http://www.w3.org/1999/02/22-rdf-syntax-ns#"
   xmlns:svg="http://www.w3.org/2000/svg"
   xmlns="http://www.w3.org/2000/svg"
   xmlns:sodipodi="http://sodipodi.sourceforge.net/DTD/sodipodi-0.dtd"
   xmlns:inkscape="http://www.inkscape.org/namespaces/inkscape"
   width="400"
   height="400"
   viewBox="0 0 105.83333 105.83334"
   version="1.1"
   id="svg2791"
   sodipodi:docname="neocanine_head_south.svg"
   inkscape:export-filename="D:\SteamLibrary\steamapps\common\RimWorld\Mods\Neocanine\Textures\Things\Pawn\Neocanine\Heads\Average_Normal_south.png"
   inkscape:export-xdpi="30.719999"
   inkscape:export-ydpi="30.719999"
   inkscape:version="1.0.1 (3bc2e813f5, 2020-09-07)">
  <defs
     id="defs2785" />
  <sodipodi:namedview
     id="base"
     pagecolor="#222222"
     bordercolor="#666666"
     borderopacity="1.0"
     inkscape:pageopacity="0"
     inkscape:pageshadow="2"
     inkscape:zoom="2.8"
     inkscape:cx="259.89545"
     inkscape:cy="254.9158"
     inkscape:document-units="mm"
     inkscape:current-layer="layer1"
     inkscape:document-rotation="0"
     showgrid="true"
     units="px"
     inkscape:snap-global="true"
     inkscape:snap-grids="true"
     inkscape:window-width="1825"
     inkscape:window-height="1236"
     inkscape:window-x="1314"
     inkscape:window-y="72"
     inkscape:window-maximized="0"
     inkscape:snap-bbox="true"
     inkscape:snap-nodes="true">
    <inkscape:grid
       type="xygrid"
       id="grid3391"
       spacingx="2.6458334"
       spacingy="2.6458334"
       color="#dd0724"
       opacity="0.1254902"
       empcolor="#ffee3f"
       empopacity="0.25098039" />
  </sodipodi:namedview>
  <metadata
     id="metadata2788">
    <rdf:RDF>
      <cc:Work
         rdf:about="">
        <dc:format>image/svg+xml</dc:format>
        <dc:type
           rdf:resource="http://purl.org/dc/dcmitype/StillImage" />
        <dc:title></dc:title>
      </cc:Work>
    </rdf:RDF>
  </metadata>
  <g
     inkscape:groupmode="layer"
     id="layer4"
     inkscape:label="Layer 4"
     style="display:inline">
    <path
       style="display:inline;opacity:1;mix-blend-mode:normal;fill:#f9f9f9;fill-opacity:1;stroke:#000000;stroke-width:2.52716;stroke-linecap:butt;stroke-linejoin:miter;stroke-miterlimit:4;stroke-dasharray:none;stroke-opacity:1"
       d="m 31.7831,65.83935 c 0,0 -4.187626,4.942809 -5.324766,8.380902 1.824191,-0.32053 1.752453,1.403043 3.261418,0.405529 -1.256239,3.724852 2.530604,5.863075 5.902584,7.440298 0.365597,-3.451148 0.164267,-2.998293 1.43316,-3.699107 0.854052,3.099969 4.235456,11.192567 11.436011,11.973334 -0.163227,-1.237484 0.883886,-2.383221 1.856977,-3.140518 0.470859,0.874605 1.668223,3.508445 2.866793,5.404381 11.498645,-6.077961 13.417529,-6.93425 17.75998,-13.703285 0.350033,1.235588 -0.02411,0.573886 0.477338,1.447341 6.564519,-2.829003 2.870492,-4.046409 4.65917,-7.569848 0.969073,0.492386 2.129595,1.076963 3.261415,1.757288 0.432875,-6.125148 -6.988752,-9.687605 -6.988752,-9.687605 z"
       id="path839"
       sodipodi:nodetypes="cccccccccccccc" />
  </g>
  <g
     inkscape:label="Layer 1"
     inkscape:groupmode="layer"
     id="layer1"
     style="display:inline;opacity:1;mix-blend-mode:normal">
    <path
       id="path847"
       style="fill:#f9f9f9;stroke:#000000;stroke-width:3.22297;stroke-linecap:butt;stroke-linejoin:miter;stroke-miterlimit:4;stroke-dasharray:none;stroke-opacity:1"
       d="m 52.693424,39.031092 c -8.186822,0.213756 -13.005922,-0.558105 -17.743104,12.425597 -6.005142,6.295218 -9.712074,8.564161 -9.224759,16.604152 1.1634,-0.100102 0.569781,0.07502 2.170409,-0.02739 0.239604,1.197531 0.35663,0.720614 -1.302244,3.065963 7.784594,0.23872 12.844727,1.597305 18.449001,4.883422 0.566957,1.437584 0.81166,2.2465 2.09083,4.166672 2.420011,0.552611 3.900771,0.539501 5.559867,0.539501 1.659096,0 3.140368,0.01312 5.560385,-0.539501 1.279168,-1.920169 1.523873,-2.729088 2.090828,-4.166672 5.604277,-3.286117 10.664406,-4.644702 18.449001,-4.883422 -1.658874,-2.345349 -1.541849,-1.868435 -1.302245,-3.065963 1.600629,0.10242 1.007012,-0.0727 2.170409,0.02739 C 80.149117,60.020852 76.442185,57.751905 70.437043,51.456689 66.145835,38.472987 60.767872,39.05478 52.693424,39.031092 Z"
       sodipodi:nodetypes="cccccccsccccccc" />
    <path
       style="fill:#cccccc;stroke:none;stroke-width:0.214864px;stroke-linecap:butt;stroke-linejoin:miter;stroke-opacity:1"
       d="m 50.05536,74.709303 c -0.362573,1.762153 1.504226,2.773728 2.821596,2.767334 1.304519,-0.0063 3.092902,-1.166621 2.767334,-2.767334 -2.052891,-0.813922 -3.717742,-0.829293 -5.58893,0 z"
       id="path3372"
       sodipodi:nodetypes="cccc"
       inkscape:export-xdpi="30.719999"
       inkscape:export-ydpi="30.719999" />
    <path
       style="fill:#1a1a1a;stroke:#000000;stroke-width:0.236437px;stroke-linecap:butt;stroke-linejoin:miter;stroke-opacity:1"
       d="m 58.208335,63.500002 c -0.578853,-0.690655 -0.350066,-1.912656 0.08443,-2.70214 0.967404,-1.75774 3.017527,-2.970133 4.982072,-3.377675 1.262154,-0.261832 2.504809,0.01933 3.525445,1.161077 0.192899,0.403288 0.01335,0.491276 -0.358878,0.738866 -1.501555,0.556611 -1.845551,-0.687221 -2.343262,0.316658 0.30797,0.41229 0.19338,1.09578 -0.02111,1.625504 -0.548334,1.354216 -2.128051,2.225601 -3.546558,2.575476 -0.759434,0.187316 -1.819705,0.261718 -2.322147,-0.337766 z"
       id="path3374"
       sodipodi:nodetypes="cccccccccc"
       inkscape:export-xdpi="30.719999"
       inkscape:export-ydpi="30.719999" />
    <path
       style="fill:#1a1a1a;stroke:#000000;stroke-width:0.236438px;stroke-linecap:butt;stroke-linejoin:miter;stroke-opacity:1"
       d="m 47.625001,63.500002 c 0.578853,-0.690655 0.350067,-1.912656 -0.08443,-2.70214 -0.967404,-1.75774 -3.017528,-2.970133 -4.982072,-3.377675 -1.262154,-0.261832 -2.50481,0.01933 -3.525445,1.161077 -0.192899,0.403288 -0.01334,0.491276 0.358879,0.738866 1.501553,0.556611 1.84555,-0.687221 2.343261,0.316658 -0.30797,0.41229 -0.193381,1.09578 0.02111,1.625504 0.548333,1.354216 2.128051,2.225601 3.546557,2.575476 0.759435,0.187317 1.819707,0.261718 2.322146,-0.337766 z"
       id="path3374-3"
       sodipodi:nodetypes="cccccccccc"
       inkscape:export-xdpi="30.719999"
       inkscape:export-ydpi="30.719999" />
  </g>
  <g
     inkscape:groupmode="layer"
     id="layer2"
     inkscape:label="Layer 2"
     style="display:none">
    <path
       style="display:inline;opacity:1;fill:#f9f9f9;stroke:#000000;stroke-width:4.02871;stroke-linecap:butt;stroke-linejoin:miter;stroke-miterlimit:4;stroke-dasharray:none;stroke-opacity:1"
       d="m 71.107916,55.357138 c 4.512502,-7.910579 5.40086,-14.341075 5.697369,-19.805185 0.06075,-1.897104 0.25981,-3.52923 -1.220678,-5.56203 -7.091609,3.089388 -9.014926,5.144878 -17.635037,12.344736"
       id="path845" />
  </g>
  <g
     inkscape:groupmode="layer"
     id="layer3"
     inkscape:label="Layer 3"
     style="display:none">
    <path
       style="display:inline;opacity:1;fill:#f9f9f9;stroke:#000000;stroke-width:4.02871;stroke-linecap:butt;stroke-linejoin:miter;stroke-miterlimit:4;stroke-dasharray:none;stroke-opacity:1"
       d="m 47.437787,42.334659 c -8.620111,-7.199858 -10.54343,-9.255348 -17.635036,-12.344736 -1.48049,2.0328 -1.281431,3.664926 -1.220676,5.56203 0.296507,5.46411 1.184864,11.894606 5.697367,19.805185"
       id="path3354" />
  </g>
</svg>
