<?xml version="1.0" encoding="UTF-8" standalone="no"?>
<svg
   xmlns:dc="http://purl.org/dc/elements/1.1/"
   xmlns:cc="http://creativecommons.org/ns#"
   xmlns:rdf="http://www.w3.org/1999/02/22-rdf-syntax-ns#"
   xmlns:svg="http://www.w3.org/2000/svg"
   xmlns="http://www.w3.org/2000/svg"
   xmlns:sodipodi="http://sodipodi.sourceforge.net/DTD/sodipodi-0.dtd"
   xmlns:inkscape="http://www.inkscape.org/namespaces/inkscape"
   width="400"
   height="400"
   viewBox="0 0 105.83333 105.83334"
   version="1.1"
   id="svg1451"
   inkscape:version="1.0.1 (3bc2e813f5, 2020-09-07)"
   sodipodi:docname="neocanine_tail_north.svg"
   inkscape:export-filename="C:\Users\matly\neocanine_tail_north.png"
   inkscape:export-xdpi="30.719999"
   inkscape:export-ydpi="30.719999">
  <defs
     id="defs1445" />
  <sodipodi:namedview
     id="base"
     pagecolor="#292929"
     bordercolor="#444444"
     borderopacity="1"
     inkscape:pageopacity="0"
     inkscape:pageshadow="2"
     inkscape:zoom="1.4"
     inkscape:cx="168.90293"
     inkscape:cy="68.135205"
     inkscape:document-units="mm"
     inkscape:current-layer="layer1"
     inkscape:document-rotation="0"
     showgrid="true"
     units="px"
     inkscape:window-width="1267"
     inkscape:window-height="1198"
     inkscape:window-x="682"
     inkscape:window-y="41"
     inkscape:window-maximized="0"
     inkscape:snap-global="false">
    <inkscape:grid
       type="xygrid"
       id="grid4654"
       spacingx="26.458334" />
  </sodipodi:namedview>
  <metadata
     id="metadata1448">
    <rdf:RDF>
      <cc:Work
         rdf:about="">
        <dc:format>image/svg+xml</dc:format>
        <dc:type
           rdf:resource="http://purl.org/dc/dcmitype/StillImage" />
        <dc:title></dc:title>
      </cc:Work>
    </rdf:RDF>
  </metadata>
  <g
     inkscape:label="Layer 1"
     inkscape:groupmode="layer"
     id="layer1">
    <path
       style="fill:#f9f9f9;stroke:#000000;stroke-width:2.64583;stroke-linecap:round;stroke-linejoin:miter;stroke-miterlimit:8.30769;stroke-dasharray:none;stroke-opacity:1"
       d="m 57.718066,52.598645 c -0.376364,1.881822 -1.876389,6.255067 1.038449,15.15312 0.674709,-1.395647 0.735663,-0.750219 1.262166,-1.596909 0.466483,0.823765 1.094526,2.192241 1.393186,3.934008 3.090715,-2.351367 3.126224,-3.343408 3.126224,-3.343408"
       id="path2124"
       sodipodi:nodetypes="ccccc" />
    <path
       style="fill:#f9f9f9;stroke:#000000;stroke-width:2.64583;stroke-linecap:round;stroke-linejoin:miter;stroke-miterlimit:8.30769;stroke-dasharray:none;stroke-opacity:1"
       d="m 49.991254,52.961129 c 0.376364,1.881822 3.375245,4.390638 0.460412,13.288691 -0.455364,-0.445153 -0.406646,-0.31153 -0.860035,-1.962483 -0.247138,1.372127 -1.898788,3.983555 -2.197448,5.725322 -3.090716,-2.351366 -3.199339,-3.782097 -3.199339,-3.782097"
       id="path2124-2"
       sodipodi:nodetypes="ccccc" />
    <path
       style="fill:#f9f9f9;stroke:#000000;stroke-width:2.64583333;stroke-linecap:round;stroke-linejoin:miter;stroke-miterlimit:4;stroke-dasharray:none;stroke-opacity:1"
       d="m 47.379232,40.31868 c 0,0 -1.302175,1.525949 -2.419362,3.273254 -2.613025,0.889459 -4.917904,5.147763 -7.466509,4.945287 -1.606624,2.5325 -2.764882,5.345017 -2.846309,8.254298 -0.165535,5.914388 1.194499,8.444122 3.530508,13.253833 2.500672,9.481857 -5.811189,21.215375 -14.280385,21.649221 -1.357627,0.0017 -2.088023,-0.148783 -3.700203,0 0.166478,1.125625 0.29329,1.629715 0.569262,2.84631 -0.945288,-0.306037 -1.709954,-0.951124 -2.277047,-0.426946 0.548892,1.653917 0.80052,3.328164 1.52989,4.447358 0.98627,1.513395 1.817194,1.912915 3.593467,2.241465 1.794554,0.33194 4.311775,-0.26427 6.048408,-1.174096 -0.09338,0.764106 -1.674893,2.180206 -2.205888,2.953046 3.653168,0.61742 7.519734,-1.33706 10.958292,-1.49431 4.31474,-0.19732 8.702704,1.20819 12.950711,0.42694 3.743258,-0.68842 7.685603,-1.884399 10.531346,-4.411778 4.320283,-3.836958 6.824754,-10.298779 8.538931,-15.085441 0.743876,0.953307 1.04785,0.648154 1.423153,1.992414 4.423934,-4.189786 4.961616,-8.282871 5.550306,-12.452605 -2.765936,-16.77308 -6.697211,-19.756666 -9.256432,-22.318247 -1.05017,-2.181804 -2.299691,-2.935025 2.29283,-1.792633 -1.491887,-6.248704 -6.873689,-3.202693 -8.833419,-4.138746 -1.143069,-0.598915 -2.277048,-3.130941 -2.277048,-3.130941"
       id="path8340"
       sodipodi:nodetypes="ccccccccccccccccccccccc" />
  </g>
</svg>
